<?xml version="1.0" encoding="UTF-8" standalone="no"?>
<!-- Created with Inkscape (http://www.inkscape.org/) -->

<svg
   width="195.10995mm"
   height="101.3138mm"
   viewBox="0 0 195.10995 101.3138"
   version="1.1"
   id="svg1"
   xml:space="preserve"
   xmlns="http://www.w3.org/2000/svg"
   xmlns:svg="http://www.w3.org/2000/svg"><defs
     id="defs1" /><g
     id="layer1"
     transform="translate(-7.4450189,-97.843103)"><path
       style="fill:#000000;stroke-width:0.17498"
       d="m 109.98967,198.36948 c 0,-0.7812 -0.005,-0.78741 -0.60419,-0.78741 -0.81164,0 -1.4158,-0.29817 -1.65125,-0.81495 -0.12159,-0.26685 -0.19428,-1.72908 -0.19428,-3.90802 0,-3.42775 0.007,-3.48921 0.42215,-3.97258 0.41814,-0.48627 0.44469,-0.49153 2.7907,-0.55164 2.34262,-0.0601 2.37343,-0.0558 2.81499,0.38575 0.42877,0.42877 0.44749,0.53509 0.47267,2.6854 0.0361,3.08077 -3.5e-4,4.79225 -0.11196,5.2542 -0.11375,0.47101 -0.92333,0.92184 -1.65537,0.92184 -0.48706,0 -0.53364,0.0504 -0.53364,0.57743 0,0.75059 -0.26845,0.9974 -1.08489,0.9974 h -0.66493 z m 2.23546,-5.46815 -0.0482,-2.75595 -1.3561,-0.0511 -1.3561,-0.0511 v 2.80705 2.80705 h 1.40429 1.40429 z m -91.939,4.55605 c -0.275199,-0.0512 -0.576679,-0.48906 -1.125781,-1.63496 -0.721004,-1.50463 -0.772304,-1.56498 -1.330208,-1.56498 -0.553625,0 -0.580351,0.0302 -0.581805,0.65616 -6.62e-4,0.3609 -0.05119,1.06957 -0.111861,1.57483 l -0.110345,0.91865 h -0.850529 -0.850536 v -4.56181 -4.56182 l 2.708716,0.0561 c 2.656246,0.0549 2.717592,0.0649 3.167372,0.51521 0.421019,0.42146 0.465905,0.6082 0.54678,2.27475 l 0.08812,1.81559 -0.615434,0.70982 -0.61544,0.70982 0.682977,1.45301 c 0.375637,0.79914 0.647641,1.51017 0.604456,1.58004 -0.08524,0.13792 -1.002897,0.17198 -1.60648,0.0597 z m -0.517773,-5.22654 c 0.182875,-0.47656 0.115913,-1.74329 -0.103765,-1.96297 -0.118877,-0.11888 -0.688256,-0.20998 -1.312354,-0.20998 h -1.102382 v 1.22486 1.22487 h 1.206148 c 0.938428,0 1.229717,-0.0615 1.312353,-0.27678 z m 4.743197,5.20255 c -1.182285,-0.38443 -1.302591,-0.835 -1.30818,-4.89952 l -0.004,-3.03592 0.594933,-0.59493 0.594939,-0.59494 h 2.218216 2.218216 l 0.511484,0.51149 c 0.560404,0.5604 0.578492,0.74531 0.547389,5.5964 -0.01455,2.26882 -0.09026,2.56978 -0.729675,2.90044 -0.531007,0.2746 -3.897563,0.35942 -4.643149,0.11698 z m 3.392765,-1.99132 c 0.163624,-0.44231 0.216141,-4.16619 0.06925,-4.90992 l -0.0964,-0.48814 -1.332842,0.0507 -1.332841,0.0507 -0.04861,2.61703 c -0.02678,1.43936 -0.0095,2.71891 0.03823,2.84343 0.05972,0.15567 0.47312,0.22642 1.322882,0.22642 1.118664,0 1.249696,-0.0371 1.380332,-0.39019 z m 3.615943,1.98034 c -0.06011,-0.0973 -0.0695,-0.86887 -0.02083,-1.71467 0.04868,-0.84579 0.0908,-2.85671 0.09366,-4.46873 l 0.0053,-2.93093 h 2.887181 2.887187 v 0.86899 0.86898 l -1.881044,0.0496 -1.881043,0.0496 -0.05264,0.9117 -0.05264,0.91171 1.539987,0.0507 1.539981,0.0507 0.05304,0.82447 0.05305,0.82447 -1.612656,0.0505 -1.612663,0.0505 -0.01521,1.83729 -0.01521,1.83731 -0.903007,0.0523 c -0.496649,0.0288 -0.952191,-0.0273 -1.012307,-0.12451 z m 7.55845,0.0497 c -0.278909,-0.0826 -0.308319,-0.44068 -0.329773,-4.01493 -0.01296,-2.15833 -0.0326,-4.18014 -0.04371,-4.49293 l -0.02017,-0.56868 h 2.974676 2.974676 l 0.05331,0.83116 0.05331,0.83116 h -2.013934 -2.01394 l -0.111615,0.59496 c -0.223362,1.19063 -0.164807,1.23684 1.638157,1.29276 l 1.625883,0.0505 -0.05304,0.82447 -0.05304,0.82447 -1.481762,0.0515 c -0.814968,0.0283 -1.524677,0.12088 -1.577122,0.20574 -0.05245,0.0848 -0.06671,0.51447 -0.03168,0.9547 l 0.06369,0.8004 h 1.784679 c 1.154781,0 1.858795,0.0741 1.994662,0.20998 0.268175,0.26818 0.273506,1.30494 0.0075,1.46931 -0.239949,0.14829 -4.997472,0.26684 -5.440705,0.13555 z m 7.537591,-0.27075 c -0.710754,-0.4121 -0.838664,-0.70779 -0.84219,-1.94695 l -0.0026,-0.84029 0.918648,0.0529 c 0.895646,0.0516 0.920023,0.0671 0.97344,0.62102 0.06395,0.66275 0.381781,0.79524 1.706613,0.71138 l 0.863307,-0.0547 0.05344,-0.73596 0.05344,-0.73596 -0.92833,-0.26072 c -0.510584,-0.14338 -1.266071,-0.34757 -1.678857,-0.45375 -0.412784,-0.10616 -0.990469,-0.40742 -1.283742,-0.66946 -0.993936,-0.88808 -1.034298,-3.07865 -0.07443,-4.03944 0.42426,-0.42468 0.577996,-0.45773 2.387746,-0.51347 1.207444,-0.0372 2.118783,0.0169 2.425284,0.1438 0.601817,0.24928 1.106264,1.28898 1.027287,2.11731 -0.05548,0.58182 -0.0781,0.59816 -0.8285,0.59816 -0.697295,0 -0.798237,-0.0549 -1.049885,-0.57051 -0.275939,-0.56545 -0.288505,-0.57012 -1.415787,-0.52494 l -1.137374,0.0455 -0.05403,0.55791 c -0.07011,0.724 0.352827,1.00643 2.038026,1.36092 2.259234,0.47524 2.480321,0.74134 2.472451,2.97581 -0.0082,2.3269 -0.272415,2.544 -3.088843,2.53802 -1.608517,-0.004 -1.989009,-0.0599 -2.535305,-0.37669 z m 8.807307,0.23277 c -0.926624,-0.0969 -1.180309,-0.19846 -1.539545,-0.61609 -0.357496,-0.41562 -0.421296,-0.65183 -0.377905,-1.39909 0.04913,-0.8455 0.08213,-0.90248 0.554551,-0.95646 0.927033,-0.10594 1.307743,0.0928 1.367661,0.71415 l 0.05476,0.56812 h 1.312359 1.312353 l 0.05371,-0.64652 c 0.06514,-0.78364 -0.230842,-0.96924 -2.295197,-1.43932 -1.891651,-0.43075 -2.268327,-0.78544 -2.358971,-2.22136 -0.09711,-1.53829 0.121211,-2.2567 0.83141,-2.73577 0.511523,-0.34506 0.806437,-0.39371 2.386827,-0.39371 1.025342,0 2.001103,0.0901 2.261991,0.20905 0.591539,0.26951 0.957508,0.98886 0.957508,1.88203 v 0.70862 h -0.95077 c -0.907134,0 -0.953315,-0.0221 -1.006143,-0.48121 -0.05324,-0.46267 -0.09856,-0.48323 -1.176811,-0.53401 -1.221364,-0.0575 -1.408478,0.0588 -1.413101,0.87782 -0.0034,0.57962 0.224255,0.7073 1.923805,1.07958 1.53184,0.33554 2.388057,0.80205 2.627385,1.43153 0.21856,0.57486 0.220664,2.37132 0.0034,2.94265 -0.09194,0.24183 -0.359705,0.56585 -0.595031,0.72004 -0.498588,0.32669 -2.308325,0.46006 -3.93434,0.28995 z m 6.315115,0.032 c -0.167082,-0.0674 -0.218726,-1.15896 -0.218726,-4.62317 v -4.53493 h 0.962395 0.962396 v 4.63699 4.637 l -0.743669,-0.0138 c -0.409023,-0.007 -0.842097,-0.0535 -0.962396,-0.10207 z m 5.184877,-0.005 c -0.770724,-0.0553 -1.073244,-0.16625 -1.399848,-0.51356 -0.404882,-0.43055 -0.418175,-0.5388 -0.47072,-3.83374 -0.05892,-3.69728 -0.01659,-3.90815 0.896394,-4.46485 0.468218,-0.28549 0.886414,-0.34005 2.610784,-0.3406 2.022293,-6.6e-4 2.061888,0.007 2.624712,0.51037 l 0.571448,0.51104 -0.01541,3.61244 -0.01541,3.61246 -0.469701,0.46977 c -0.429451,0.42949 -0.593094,0.47136 -1.909382,0.48846 -0.791822,0.0103 -1.882121,-0.013 -2.422876,-0.0518 z m 2.821714,-1.89317 c 0.164039,-0.19766 0.193998,-0.91167 0.119306,-2.84343 -0.05489,-1.41873 -0.104419,-2.5992 -0.110134,-2.62325 -0.006,-0.024 -0.60095,-0.0437 -1.322749,-0.0437 h -1.312352 l -0.0053,0.4812 c -0.03663,3.52635 -0.01329,4.94702 0.08381,5.10415 0.185627,0.30036 2.286957,0.23854 2.54711,-0.0749 z m 8.679296,1.62004 c -0.138366,-0.21653 -0.926966,-1.53545 -1.752457,-2.93093 l -1.500882,-2.53722 -0.0013,2.84344 -0.0013,2.84344 h -0.874906 -0.874899 v -4.55823 -4.55824 l 0.980198,0.0525 0.980199,0.0524 0.956477,1.66233 c 0.52606,0.91426 1.198324,2.11507 1.493912,2.66844 0.295588,0.55339 0.605203,1.00615 0.688037,1.00615 0.08283,0 0.1506,-1.22049 0.1506,-2.71221 v -2.7122 h 0.8749 0.874907 v 4.63699 4.63699 h -0.870872 c -0.711931,0 -0.916783,-0.0719 -1.122442,-0.3937 z m 3.044792,0.17498 c 6.61e-4,-0.12029 0.345302,-1.3211 0.765388,-2.66846 0.420086,-1.34735 1.022611,-3.33556 1.338945,-4.41826 l 0.575145,-1.96853 h 1.200441 c 1.408174,0 1.179111,-0.33139 2.29806,3.32464 1.534155,5.01263 1.716262,5.63599 1.662058,5.68933 -0.05482,0.054 -1.458648,0.13204 -1.820588,0.10125 -0.104929,-0.009 -0.294676,-0.4493 -0.421654,-0.97861 l -0.230876,-0.9624 h -1.437029 -1.437023 l -0.115431,0.72184 c -0.197359,1.23424 -0.345725,1.37792 -1.422791,1.37792 -0.649189,0 -0.955729,-0.0702 -0.954645,-0.21872 z m 4.722888,-3.82492 c 0,-0.36183 -0.769521,-3.13056 -0.870085,-3.13056 -0.134226,0 -0.853201,3.02669 -0.758575,3.1934 0.120252,0.21185 1.62866,0.15366 1.62866,-0.0629 z m 4.491173,3.92699 c -0.06415,-0.0642 -0.116655,-2.15492 -0.116655,-4.64613 v -4.52948 l 0.918655,0.0529 0.918647,0.0529 -0.0086,3.63085 c -0.006,2.41739 0.05277,3.63378 0.174978,3.63962 0.100968,0.005 0.931617,0.0245 1.845892,0.0437 l 1.662317,0.035 0.0529,0.91865 0.0529,0.91865 h -2.692181 c -1.480706,0 -2.744681,-0.0525 -2.808837,-0.11665 z m 9.988485,-0.0186 c -0.28169,-0.0602 -0.30621,-0.41462 -0.30621,-4.42706 v -4.49292 c 0,-0.0722 1.31892,-0.13124 2.93093,-0.13124 h 2.93092 l 0.0533,0.83117 0.0533,0.83115 h -2.02187 -2.02186 v 0.95583 0.95583 l 1.61857,0.0503 1.61858,0.0503 0.0538,0.74367 c 0.053,0.73257 0.0452,0.74396 -0.52495,0.76308 -1.19622,0.0401 -2.63706,0.14334 -2.68403,0.1923 -0.085,0.0886 -0.1241,0.55504 -0.10271,1.22616 l 0.0208,0.65044 1.96853,0.0495 1.96854,0.0494 0.0533,0.83117 0.0533,0.83115 -1.45319,0.0377 c -2.60938,0.0679 -3.89752,0.0684 -4.20913,0.002 z m 16.80118,-0.0137 c -0.69997,-0.0818 -1.12301,-0.23697 -1.39985,-0.51362 -0.38432,-0.38406 -0.39856,-0.5169 -0.45536,-4.24932 -0.0441,-2.89343 -0.004,-3.91835 0.15966,-4.11588 0.15008,-0.18084 0.4691,-0.24672 1.02102,-0.21085 l 0.80275,0.0522 0.0874,3.6746 0.0875,3.6746 h 1.22486 1.22487 l 0.0472,-3.72737 0.0472,-3.72736 0.91515,0.0528 0.91514,0.0528 0.0469,4.05485 c 0.0469,4.04219 0.0456,4.05633 -0.36668,4.5357 -0.3832,0.44549 -0.52184,0.48394 -1.88424,0.52249 -0.80884,0.0229 -1.92201,-0.0111 -2.47373,-0.0755 z m 17.32007,0.0131 -2.58096,-0.0484 v -4.55396 -4.55397 l 0.91865,0.0529 0.91865,0.0529 0.0339,3.64751 0.0339,3.64751 1.62844,0.0456 c 0.89564,0.025 1.72687,0.0569 1.84717,0.0709 0.13796,0.0159 0.21873,0.30909 0.21873,0.79393 0,0.46498 -0.0864,0.79337 -0.21873,0.83115 -0.1203,0.0344 -1.38017,0.0407 -2.79969,0.0141 z m 4.36205,0.0213 c -0.0654,-0.0654 -0.11876,-2.15293 -0.11876,-4.63911 v -4.52035 h 0.96239 0.9624 v 4.60925 4.60923 l -0.84363,0.0298 c -0.464,0.0165 -0.89708,-0.0237 -0.9624,-0.0889 z m 5.39314,-0.0604 -2.44974,-0.0875 -0.0519,-0.44498 c -0.0355,-0.30468 0.23079,-0.85636 0.84465,-1.7498 2.00296,-2.91517 3.31927,-4.88509 3.31927,-4.96748 0,-0.048 -0.8071,-0.10964 -1.79356,-0.13706 -1.73308,-0.0482 -1.79551,-0.0638 -1.85179,-0.46138 -0.032,-0.22632 -0.0108,-0.60035 0.0471,-0.83116 l 0.10532,-0.41965 h 2.97135 2.97133 v 0.78661 c 0,0.71517 -0.17302,1.03704 -1.90477,3.54336 -1.04763,1.51622 -1.91418,2.8313 -1.92569,2.9224 -0.017,0.13391 1.21252,0.22481 3.62133,0.26774 0.1628,0.003 0.213,0.24258 0.17497,0.83522 l -0.0533,0.83116 h -0.78742 c -0.43308,0 -1.88979,-0.0394 -3.23714,-0.0875 z m 9.31122,0.0664 c -0.0686,-0.0686 -0.12473,-2.15888 -0.12473,-4.64506 v -4.52035 h 0.94098 c 0.62583,0 1.01441,0.0886 1.16031,0.26431 0.12065,0.14536 0.87625,1.42124 1.67911,2.83528 l 1.45976,2.57096 0.0484,-2.79152 0.0483,-2.79154 h 0.8749 0.87491 l 0.0467,4.50577 0.0467,4.50575 h -1.0509 -1.05088 l -0.69112,-1.3561 c -0.38012,-0.74585 -1.08668,-2.02541 -1.57014,-2.84344 l -0.87903,-1.48733 -0.0504,2.88718 -0.0504,2.88718 -0.79392,0.0518 c -0.43665,0.0285 -0.85005,-0.005 -0.91865,-0.0729 z m 9.71904,-0.0714 c -0.21593,-0.0868 -0.55028,-0.41648 -0.743,-0.73259 -0.31679,-0.51958 -0.35049,-0.88201 -0.35109,-3.77681 -0.002,-4.52281 0.0462,-4.58457 3.49746,-4.58457 1.92067,0 2.11801,0.0312 2.55016,0.4029 0.40356,0.34712 0.47153,0.54695 0.49096,1.44359 l 0.0225,1.0407 h -0.87319 c -0.83345,0 -0.8773,-0.0238 -0.96362,-0.52494 -0.0904,-0.52476 -0.0909,-0.52496 -1.4453,-0.57605 l -1.35487,-0.0511 v 2.78833 c 0,3.15352 -0.0747,3.00076 1.46664,3.00076 1.08759,0 1.33305,-0.19974 1.33305,-1.08488 0,-0.65909 -0.006,-0.66492 -0.69993,-0.66492 h -0.69992 v -0.87491 -0.87491 h 1.66231 1.66232 v 1.84599 c 0,2.99444 -0.41204,3.41049 -3.35968,3.39235 -0.99126,-0.006 -1.97893,-0.0821 -2.19486,-0.16894 z m 11.79552,0.0633 c -0.0642,-0.0642 -0.11665,-1.7571 -0.11665,-3.76208 v -3.64543 h -1.14697 -1.14697 l 0.0533,-0.83116 0.0533,-0.83116 3.19341,-0.0477 3.1934,-0.0477 v 0.87885 0.87885 h -1.13738 -1.13738 v 3.65597 c 0,4.0256 0.0456,3.8683 -1.12252,3.8683 -0.31294,0 -0.62146,-0.0525 -0.68561,-0.11665 z m 6.54836,-0.052 c -0.94065,-0.15215 -1.41511,-0.67348 -1.41683,-1.55683 0,-0.35023 -0.0513,-1.74324 -0.11251,-3.09556 -0.18349,-4.05423 0.12072,-4.45123 3.41139,-4.45231 2.16217,-6.6e-4 2.79778,0.2001 3.16174,0.99889 0.2585,0.56734 0.25133,6.47115 -0.008,7.21727 -0.27595,0.79157 -1.01238,1.06249 -2.81415,1.03526 -0.79705,-0.012 -1.79645,-0.078 -2.22087,-0.14672 z m 3.09489,-1.72835 c 0.16906,-0.10728 0.21163,-0.79881 0.17498,-2.84076 l -0.0485,-2.69895 -1.3561,-0.0511 -1.35611,-0.0511 -0.004,0.75102 c -0.002,0.41307 -0.0111,1.57782 -0.0202,2.58833 -0.0212,2.31903 -0.0333,2.2342 0.32995,2.32912 0.53147,0.13888 2.04658,0.12124 2.27947,-0.0265 z m 5.30603,1.722 c -1.71626,-0.1341 -1.74246,-0.19778 -1.7996,-4.37453 -0.0508,-3.72012 0.005,-3.99545 0.90361,-4.46019 0.63805,-0.32996 4.12962,-0.36997 4.82036,-0.0552 0.85681,0.39039 0.95751,0.87106 0.95751,4.57064 0,4.31416 0.0238,4.26786 -2.234,4.35072 -0.84045,0.0308 -2.03199,0.0168 -2.64788,-0.0314 z m 2.95709,-4.56992 v -2.77928 h -1.39985 -1.39984 v 2.79134 2.79134 l 1.09363,0.0522 c 1.84181,0.0877 1.70606,0.31493 1.70606,-2.8555 z m 6.25263,4.61398 -2.75891,-0.053 0.0467,-4.50129 0.0466,-4.5013 0.91864,-0.0529 0.91865,-0.0529 v 3.68374 3.68374 h 1.71481 c 1.10045,0 1.79004,0.0752 1.9248,0.20998 0.22574,0.22574 0.29692,1.74063 0.0788,1.67583 -0.0722,-0.0214 -1.37275,-0.0629 -2.89013,-0.0919 z m -192.0414493,-4.54982 0.046693,-4.50576 2.5372233,-0.0456 c 2.261309,-0.0407 2.597901,-0.008 3.095172,0.29711 0.67608,0.41533 0.927041,1.18843 0.92841,2.86007 0.002,2.35928 -0.60562,2.9253 -3.139986,2.9253 H 9.3757163 v 1.48734 1.48734 H 8.4103648 7.4450189 Z m 4.4737133,-0.4287 c 0.11549,-0.11549 0.209977,-0.65826 0.209977,-1.20615 0,-1.169 -0.05489,-1.20859 -1.676629,-1.20859 H 9.37572 v 1.1957 c 0,0.65764 0.052514,1.2482 0.1166545,1.31236 0.2039258,0.20392 2.2531425,0.12659 2.4730595,-0.0933 z m 111.149796,4.80322 c 0.004,-0.25278 2.57954,-8.58136 2.72832,-8.82209 0.13374,-0.2164 2.30429,-0.17671 2.44109,0.0446 0.0647,0.10467 0.4143,1.14799 0.77692,2.3185 0.95762,3.09116 1.8672,5.93174 2.01219,6.28398 0.11177,0.27152 0.007,0.30622 -0.91879,0.30622 h -1.04483 l -0.30088,-0.83116 c -0.16548,-0.45714 -0.33432,-0.93776 -0.3752,-1.06804 -0.0421,-0.13399 -0.19393,-0.19099 -0.34965,-0.13124 -0.15142,0.0581 -0.77509,0.10564 -1.38595,0.10564 h -1.11065 l -0.27978,0.96241 -0.27977,0.96239 h -0.95751 c -0.52663,0 -0.95661,-0.059 -0.95551,-0.13124 z m 4.77383,-3.6746 c 0.0945,-0.1723 -0.76998,-3.01842 -0.91684,-3.01842 -0.15625,0 -0.88779,2.82747 -0.77766,3.00567 0.11128,0.18007 1.59658,0.19124 1.6945,0.0128 z m 22.17122,-0.75282 v -4.55864 l 0.91865,0.0529 0.91865,0.0529 0.0466,4.50576 0.0467,4.50576 h -0.96536 -0.96535 z M 39.82238,170.64359 v -7.35761 l 4.418266,0.003 c 4.25584,0.003 4.443801,0.0173 5.113009,0.39638 0.382112,0.21641 0.874245,0.65984 1.093633,0.98538 0.393678,0.58419 0.398883,0.66203 0.398883,5.96457 0,5.28913 -0.006,5.38189 -0.39602,5.96722 -0.791126,1.18777 -1.253935,1.28813 -6.209505,1.34665 l -4.418266,0.0522 z m 6.080583,4.07665 1.44359,-0.11238 v -3.9799 c 0,-3.46774 -0.03565,-3.99357 -0.276786,-4.08611 -0.152229,-0.0584 -1.018378,-0.10621 -1.924785,-0.10621 h -1.648004 v 4.19953 4.19955 l 0.481194,-9.4e-4 c 0.264657,-5.2e-4 1.130813,-0.0517 1.924791,-0.11342 z m 7.522261,3.14638 c -0.288848,-0.0784 -0.30527,-0.53979 -0.262468,-7.37589 l 0.04563,-7.29224 1.70797,-0.0501 1.707962,-0.0501 -0.04563,7.3993 -0.04563,7.39929 -1.399843,0.0267 c -0.769918,0.0147 -1.538506,-0.011 -1.707976,-0.0569 z m 8.889195,-0.095 c -1.746036,-5.2967 -4.135673,-12.91258 -4.389835,-13.99064 l -0.110187,-0.46738 1.396291,-0.0575 c 0.767961,-0.0317 1.621406,-0.0178 1.896546,0.0308 0.526694,0.093 0.512694,0.0638 1.213455,2.53633 0.136382,0.4812 0.602578,2.10465 1.035996,3.60767 0.433412,1.50301 0.788025,2.90067 0.788025,3.10591 0,0.83058 0.289716,0.2763 0.742413,-1.42041 1.145859,-4.29465 1.395147,-5.19952 1.814571,-6.58649 l 0.44402,-1.46832 1.750031,0.0964 c 0.962515,0.0531 1.784275,0.13067 1.826139,0.17254 0.04186,0.0418 -0.170317,0.85605 -0.4715,1.80933 -0.301189,0.95327 -0.767966,2.44189 -1.037285,3.30805 -0.26932,0.86615 -1.06712,3.3465 -1.772887,5.51189 l -1.283221,3.93707 -1.884251,0.0496 c -1.414266,0.0373 -1.902728,-0.007 -1.958321,-0.17499 z m 9.646104,0.0961 c -0.06415,-0.0642 -0.116655,-3.32228 -0.116655,-7.24028 0,-5.49184 0.05007,-7.16244 0.218727,-7.29311 0.175415,-0.13592 8.066304,-0.19913 9.448964,-0.0757 0.266925,0.0238 0.306215,0.22941 0.306215,1.60217 v 1.57483 h -3.134113 -3.134112 l -0.05932,1.06758 c -0.0326,0.58718 -0.01667,1.1361 0.03544,1.21984 0.05211,0.0837 1.233209,0.1742 2.624713,0.20102 l 2.53,0.0487 0.05053,1.53109 0.05053,1.53107 h -2.6212 c -1.441659,0 -2.648454,0.0591 -2.681773,0.13125 -0.03333,0.0722 -0.03207,0.68242 0.0026,1.35609 l 0.06342,1.22487 h 3.055433 c 2.107791,0 3.094147,0.0622 3.180261,0.20059 0.06865,0.11033 0.09914,0.83869 0.06776,1.61857 l -0.05708,1.41799 h -4.856975 c -2.671331,0 -4.909467,-0.0525 -4.973624,-0.11666 z m 13.234038,-0.006 c -0.508707,-0.0987 -1.392514,-1.12148 -1.591116,-1.84137 -0.163227,-0.59167 -0.122653,-9.95449 0.04729,-10.90852 0.05251,-0.29487 0.374467,-0.80669 0.715436,-1.13738 l 0.619945,-0.60125 3.713041,-0.053 c 3.631,-0.052 3.726135,-0.0441 4.305354,0.34996 1.168232,0.79491 1.324409,1.17919 1.324409,3.25865 v 1.86887 h -1.749806 -1.749805 l -0.08749,-1.13738 -0.08749,-1.13737 h -1.74981 -1.749806 l -0.140112,1.39984 c -0.160793,1.60647 -0.01296,6.56617 0.202087,6.78124 0.07912,0.0792 0.924328,0.12117 1.878239,0.0934 l 1.734384,-0.0505 0.08749,-1.22486 0.08749,-1.22487 1.137374,-0.0541 c 0.625559,-0.0297 1.393288,-0.007 1.706064,0.0517 l 0.568691,0.10578 v 1.61731 c 0,2.07681 -0.397396,2.98212 -1.568161,3.5725 -0.732109,0.36919 -0.982831,0.39223 -4.024561,0.36989 -1.784097,-0.0131 -3.417195,-0.0575 -3.629109,-0.0986 z m 10.913313,0.006 c -0.06415,-0.0642 -0.116654,-3.37129 -0.116654,-7.34919 v -7.23254 l 1.268611,-0.013 c 0.697732,-0.007 1.437585,-0.0448 1.644104,-0.0836 0.206524,-0.0388 0.460249,0.0315 0.563829,0.15631 0.110597,0.13326 0.208396,1.30536 0.23694,2.83956 l 0.04861,2.61264 h 2.099766 2.09977 l 0.0466,-2.62471 c 0.0393,-2.2157 0.0923,-2.6588 0.33966,-2.84344 0.17839,-0.13313 0.85132,-0.21873 1.71944,-0.21873 h 1.42634 l 0.12419,7.21362 c 0.14534,8.44265 0.33933,7.7004 -1.99206,7.62221 l -1.48916,-0.0499 -0.009,-2.88717 -0.009,-2.88719 h -2.17808 -2.178072 l -0.04802,2.82414 c -0.04676,2.75272 -0.05787,2.82678 -0.437453,2.92854 -0.532581,0.14276 -3.015626,0.13689 -3.159991,-0.007 z m 13.695896,0.0756 c -0.006,-0.0255 -0.0535,-3.27817 -0.10551,-7.22804 -0.0816,-6.19592 -0.0591,-7.21098 0.16353,-7.39579 0.19288,-0.16007 1.46899,-0.20244 5.04872,-0.16761 l 4.7906,0.0466 v 1.57483 1.57483 l -3.1934,0.0477 -3.1934,0.0477 v 1.21612 1.21612 l 2.49349,0.0485 2.49347,0.0485 0.0506,1.63258 0.0505,1.63257 -2.50022,-0.0577 -2.50024,-0.0577 -0.0505,1.31236 -0.0505,1.31235 h 3.20014 3.20014 v 1.57483 1.57483 l -4.94321,0.0465 c -2.71876,0.0255 -4.94812,0.0255 -4.95414,0 z m 12.73713,-0.4894 c -1.23824,-1.03393 -1.25824,-1.12774 -1.32279,-6.20633 -0.0735,-5.78278 -0.0174,-6.26517 0.82517,-7.10783 0.87231,-0.87231 1.5111,-0.99519 5.00702,-0.96318 3.32263,0.0305 3.94925,0.19425 4.68418,1.22458 0.33699,0.47243 0.3983,0.81587 0.44908,2.51565 l 0.0588,1.96853 h -1.76485 -1.76487 v -0.92895 c 0,-1.44186 -0.14482,-1.54414 -2.1013,-1.48414 l -1.65814,0.0508 -0.0888,0.50716 c -0.0489,0.27893 -0.0494,2.12935 -9.4e-4,4.11205 l 0.0875,3.60488 h 1.8373 1.8373 l 0.0875,-1.22486 0.0874,-1.22486 1.60633,0.003 c 0.88346,9.3e-4 1.66127,0.0573 1.72844,0.12445 0.0671,0.0671 0.10856,0.89291 0.092,1.83497 -0.0334,1.89639 -0.29428,2.65128 -1.13271,3.27775 -0.44448,0.33212 -0.76755,0.36404 -4.18753,0.41389 l -3.70589,0.054 z m 11.46285,-6.74189 c 0.0465,-3.99978 0.15454,-7.33914 0.24013,-7.4208 0.0856,-0.0817 0.88212,-0.10544 1.77006,-0.0528 l 1.61446,0.0956 0.0479,2.9069 0.0479,2.90688 0.43745,-0.71142 c 0.2406,-0.39127 1.14613,-1.70187 2.01229,-2.91241 1.24311,-1.73742 1.68078,-2.22335 2.07789,-2.30701 0.7265,-0.15307 3.13265,-0.12531 3.39165,0.0391 0.15904,0.10096 -0.16595,0.67096 -1.17073,2.05335 -0.76497,1.05248 -1.68166,2.32326 -2.03707,2.82397 l -0.6462,0.91037 2.12514,4.25156 c 1.16882,2.33836 2.12423,4.34999 2.12315,4.47029 -0.003,0.33166 -3.56116,0.30616 -3.83809,-0.0275 -0.11238,-0.13543 -0.78926,-1.43466 -1.50416,-2.88719 -0.7149,-1.45251 -1.34284,-2.64093 -1.39542,-2.64093 -0.0526,0 -0.44734,0.54369 -0.87722,1.20822 -0.74169,1.14654 -0.78531,1.28447 -0.85443,2.70148 -0.04,0.82129 -0.12446,1.57682 -0.18758,1.67896 -0.068,0.11001 -0.79692,0.1857 -1.78818,0.1857 h -1.6734 z m 13.36702,7.13405 c -0.14569,-0.23573 -0.20584,-14.34756 -0.0617,-14.49176 0.14471,-0.14483 9.54853,-0.1057 9.78545,0.0408 0.077,0.0476 0.14004,0.7512 0.14004,1.56356 v 1.477 h -3.23714 -3.23714 v 1.22006 1.22007 l 2.49347,0.0485 2.49347,0.0485 0.0506,1.53109 0.0506,1.53108 h -2.26726 c -1.24699,0 -2.39179,0.0478 -2.54402,0.10621 -0.21786,0.0836 -0.27679,0.38164 -0.27679,1.39984 v 1.29365 h 3.23714 3.23715 l -0.003,1.18111 c -0.002,0.64962 -0.0499,1.35829 -0.10789,1.57482 l -0.10553,0.39371 h -4.78121 c -2.62969,0 -4.81969,-0.0622 -4.86669,-0.13827 z m 11.69985,-0.0386 c -0.16044,-0.2596 -0.18586,-14.22028 -0.0264,-14.47759 0.16003,-0.2582 4.7295,-0.28973 7.47148,-0.0516 1.88063,0.16335 2.39488,0.39362 2.97487,1.33204 0.32911,0.5325 0.36251,0.84822 0.35248,3.33052 -0.0125,3.08611 -0.16231,3.56913 -1.29664,4.18001 l -0.59503,0.32044 0.4775,1.15294 c 0.26264,0.6341 0.78726,1.79411 1.16584,2.57779 0.37857,0.78366 0.65924,1.51202 0.62373,1.61857 -0.0412,0.12387 -0.67443,0.19352 -1.75605,0.19319 l -1.69149,-5.2e-4 -1.22487,-2.49296 -1.22486,-2.49295 -0.8749,-0.0516 -0.87491,-0.0516 0.0578,2.29147 c 0.0405,1.6043 -0.006,2.36752 -0.15267,2.54509 -0.24927,0.30037 -3.2263,0.36744 -3.40595,0.0767 z m 7.05169,-8.19613 c 0.16288,-0.10331 0.2119,-0.55609 0.17498,-1.61588 l -0.0512,-1.47236 -1.84479,-0.0493 -1.84479,-0.0493 -0.0426,1.66786 -0.0426,1.66787 1.71239,-0.003 c 0.94182,-9.4e-4 1.81422,-0.0672 1.93866,-0.14622 z M 87.81418,154.843 c -0.47505,-0.514 -5.308614,-7.11309 -7.315974,-9.98824 -1.903919,-2.72699 -3.435586,-4.89952 -5.084392,-7.21173 -2.445044,-3.42882 -3.964914,-5.83414 -3.859694,-6.10834 0.141918,-0.36982 0.670703,-0.34307 3.52686,0.17839 1.34735,0.24599 2.922178,0.51886 3.499611,0.60636 0.57744,0.0875 1.716111,0.27613 2.530384,0.41916 0.814274,0.14303 1.519526,0.22103 1.567236,0.17332 0.04768,-0.0477 0.09015,-7.95771 0.09433,-17.57778 l 0.0076,-17.491037 13.91097,0.003 c 15.279019,0.004 15.875609,0.0359 19.477419,1.05694 1.75671,0.49802 2.57526,0.79855 4.14464,1.521677 1.1458,0.52796 4.10835,2.36506 5.24977,3.25543 1.47014,1.14678 3.84958,3.43727 3.84958,3.70566 0,0.18589 -6.32201,6.50734 -6.80877,6.80817 -0.11368,0.0702 -0.97575,-0.57676 -2.03578,-1.52792 -2.78637,-2.50019 -5.86971,-4.04994 -8.9411,-4.49396 -0.66497,-0.0961 -5.15317,-0.17498 -10.06879,-0.1769 l -8.869031,-0.004 0.02037,12.35377 c 0.01607,9.75114 0.06675,12.37158 0.240577,12.43827 0.121126,0.0465 2.17386,-0.19351 4.561639,-0.53331 5.952095,-0.84704 6.846575,-0.92347 6.972355,-0.5957 0.0941,0.24534 -1.66149,2.9487 -5.712321,8.79591 -1.952541,2.81843 -4.52096,6.54181 -7.154996,10.37246 -3.44691,5.01281 -3.162512,4.71217 -3.802482,4.01972 z m 5.990984,-0.3042 c -0.11932,-0.19307 0.460303,-1.1636 2.039019,-3.41414 0.810121,-1.15487 2.169105,-3.13703 3.019958,-4.4048 l 1.547019,-2.30503 4.92047,0.0205 c 3.23923,0.0135 5.3689,-0.0549 6.23284,-0.19996 2.6532,-0.44571 5.227,-1.44863 7.40721,-2.88637 1.93245,-1.27434 3.2255,-2.47763 4.50165,-4.18914 3.80792,-5.10703 4.57916,-11.66222 2.11208,-17.95178 l -0.50794,-1.29492 0.75479,-1.24231 c 0.65747,-1.08213 1.9785,-2.99875 4.38396,-6.36048 0.36153,-0.50526 0.74844,-0.91866 0.85982,-0.91866 0.59847,0 3.40457,4.97202 4.34523,7.69916 0.67958,1.97024 1.15161,3.93977 1.34196,5.59938 0.37863,3.30129 0.11557,7.76285 -0.63448,10.76133 -1.99349,7.96928 -8.0217,15.08898 -15.73966,18.58958 -2.57602,1.1684 -6.33223,2.19223 -9.08708,2.47687 -1.91436,0.19781 -17.376084,0.21614 -17.496846,0.0208 z m 14.782116,-21.02166 c -0.41523,-0.30079 -0.99792,-0.76484 -1.29487,-1.03124 -0.29695,-0.26638 -0.98427,-0.86675 -1.52739,-1.33415 -1.59779,-1.37505 -5.810804,-5.18072 -6.139354,-5.54576 -0.355069,-0.39449 -0.44435,-0.21019 1.306524,-2.69699 1.09438,-1.55438 1.4723,-1.96853 1.7963,-1.96853 0.22568,0 1.45963,0.69353 2.74211,1.54117 1.28248,0.84764 2.60738,1.69411 2.94422,1.88105 0.33684,0.18692 0.79875,0.4765 1.02648,0.64352 0.39744,0.29147 0.43576,0.28818 0.95583,-0.0821 0.61245,-0.43611 6.29119,-5.76382 7.92639,-7.43642 0.58968,-0.60317 1.15197,-1.09669 1.24952,-1.09669 0.20472,0 3.54141,2.78303 3.53769,2.95069 -0.004,0.18225 -0.93385,1.32953 -6.82178,8.41738 -5.53235,6.65981 -5.98732,6.99997 -7.70167,5.75811 z"
       id="path1" /></g></svg>
