<?xml version="1.0" encoding="UTF-8" standalone="no"?>
<!-- Created with Inkscape (http://www.inkscape.org/) -->

<svg
   width="210mm"
   height="297mm"
   viewBox="0 0 210 297"
   version="1.1"
   id="svg1"
   xmlns="http://www.w3.org/2000/svg"
   xmlns:svg="http://www.w3.org/2000/svg">
  <defs
     id="defs1" />
  <g
     id="layer1">
    <path
       d="m 108.23082,197.89765 c -0.0764,-0.2011 -0.16601,-0.5068 -0.19917,-0.67933 -0.0431,-0.2245 -0.23209,-0.34163 -0.66445,-0.41189 -0.3323,-0.054 -0.77209,-0.26847 -0.9773,-0.47656 -0.40739,-0.4131 -0.46482,-1.0707 -0.41397,-4.74008 0.0306,-2.2133 0.17223,-2.40124 1.89332,-2.51347 1.71717,-0.11198 2.61867,0.0142 3.0982,0.43359 l 0.4054,0.35458 v 2.99681 2.99682 l -0.4023,0.40231 c -0.22128,0.22126 -0.52355,0.4034 -0.67172,0.40473 -0.47102,0.004 -0.70616,0.2635 -0.80709,0.8899 -0.0881,0.54694 -0.15044,0.61422 -0.6101,0.6587 -0.41383,0.04 -0.53857,-0.0205 -0.65082,-0.31611 z m 1.37187,-2.53092 c 0.13043,-0.13042 0.18966,-0.92021 0.18966,-2.52881 v -2.33914 h -0.99572 c -0.56371,0 -1.078,0.0823 -1.18538,0.18966 -0.21347,0.21347 -0.26978,4.02306 -0.0642,4.34641 0.29108,0.45791 1.70188,0.68567 2.05568,0.33188 z m -85.503768,-2.06256 c -0.03076,-2.02107 -0.03054,-3.75949 4.75e-4,-3.86315 0.0386,-0.12894 0.663902,-0.20384 1.979119,-0.23707 2.857706,-0.0722 3.243071,0.20658 3.382882,2.4476 0.09819,1.57392 -0.151854,2.22305 -0.991458,2.57386 -0.682668,0.28524 -2.284195,0.30416 -2.291569,0.0271 -0.0029,-0.10866 -0.135002,-0.0422 -0.293576,0.14775 -0.204917,0.24542 -0.292253,0.62278 -0.301919,1.30456 -0.0075,0.52761 -0.05738,1.0301 -0.110879,1.11666 -0.0535,0.0866 -0.371749,0.1574 -0.707214,0.1574 h -0.609939 z m 3.534242,-0.53816 c 0.337181,-0.30515 0.404938,-1.61397 0.09937,-1.91953 -0.104313,-0.10431 -0.602172,-0.18966 -1.106353,-0.18966 h -0.916693 v 1.09536 c 0,1.01027 0.02763,1.10069 0.355614,1.16386 0.774311,0.14914 1.292239,0.0996 1.56806,-0.15003 z m 3.16966,4.01527 c -0.19444,-0.23854 -0.327827,-7.06198 -0.143669,-7.34935 0.09047,-0.14117 0.704252,-0.19756 2.150382,-0.19756 1.952419,0 2.037823,0.0141 2.422195,0.39841 0.324177,0.32418 0.418666,0.6145 0.507082,1.55803 0.136301,1.45456 0.0028,2.18538 -0.482348,2.64118 -0.490832,0.46111 -0.479117,0.65916 0.0941,1.59075 0.759325,1.23406 0.588848,1.70175 -0.54291,1.48944 -0.419134,-0.0786 -0.563629,-0.1979 -0.643384,-0.53103 -0.05657,-0.23631 -0.294423,-0.82081 -0.528564,-1.29891 -0.394457,-0.80546 -0.466068,-0.86928 -0.975443,-0.86928 h -0.549734 v 1.18538 c 0,1.37219 -0.09242,1.5805 -0.701203,1.5805 -0.245009,0 -0.517938,-0.0889 -0.606508,-0.19756 z m 3.316923,-4.11872 c 0.190253,-0.29923 0.143289,-1.60759 -0.06519,-1.81608 -0.104313,-0.10431 -0.596957,-0.18966 -1.094765,-0.18966 -1.015223,0 -1.04663,0.0404 -0.950979,1.22289 0.04349,0.53762 0.133549,0.72532 0.395126,0.82344 0.520223,0.19516 1.581886,0.17005 1.715809,-0.0406 z m 4.185839,4.20065 c -0.47216,-0.0491 -0.667,-0.17055 -0.908199,-0.56612 -0.272761,-0.44735 -0.307146,-0.8092 -0.307671,-3.23785 -6.57e-4,-2.89666 0.13485,-3.55058 0.785939,-3.79351 0.162706,-0.0607 1.090089,-0.0748 2.060852,-0.0314 2.419793,0.10835 2.36052,0.0247 2.393022,3.37609 0.01361,1.40295 0.03864,2.75152 0.05562,2.99684 0.0776,1.12082 -1.299992,1.54491 -4.079563,1.25592 z m 2.383532,-1.39481 c 0.331424,-0.23214 0.351269,-0.35868 0.351269,-2.23978 0,-2.46726 -0.06202,-2.5718 -1.525975,-2.5718 H 38.51158 v 2.27239 c 0,2.36289 0.03794,2.50537 0.711227,2.67086 0.627251,0.15418 1.121577,0.1098 1.466311,-0.13167 z m 3.313239,1.40056 c -0.0387,-0.07 -0.08357,-1.51408 -0.09973,-3.20918 -0.01615,-1.69509 -0.07029,-3.3139 -0.120292,-3.59738 -0.164737,-0.93383 0.01765,-0.99748 2.532029,-0.88355 2.277272,0.10319 2.463496,0.16163 2.468075,0.77465 0.0043,0.57725 -0.308167,0.70332 -1.743249,0.70332 -1.139877,0 -1.411226,0.0496 -1.63711,0.29919 -0.246063,0.2719 -0.249307,0.35053 -0.03555,0.86213 l 0.235214,0.56295 1.156917,0.0467 1.156917,0.0466 0.04907,0.59297 c 0.04305,0.52021 -0.0036,0.61298 -0.380217,0.75618 -0.236107,0.0898 -0.707419,0.1354 -1.047359,0.1014 -0.991298,-0.0991 -1.21514,0.20334 -1.265827,1.71046 l -0.04252,1.2644 -0.578007,0.0481 c -0.317902,0.0265 -0.609665,-0.009 -0.648361,-0.079 z m 5.911462,-0.1 c -0.235141,-0.28332 -0.22685,-7.32937 0.0088,-7.47501 0.279197,-0.17255 4.304835,-0.19921 4.508893,-0.0299 0.254396,0.21112 0.261527,0.95307 0.01157,1.20303 -0.121709,0.12171 -0.744593,0.18966 -1.738555,0.18966 h -1.548895 v 0.79026 0.79025 h 1.422455 c 1.404893,0 1.42278,0.005 1.448796,0.39512 0.0676,1.01401 0.163406,0.94216 -1.369771,1.02733 -1.35165,0.0751 -1.425103,0.0978 -1.475673,0.45535 -0.02927,0.20696 -0.0083,0.61554 0.04652,0.90793 l 0.09973,0.53164 1.477915,-0.071 c 1.611664,-0.0774 1.660679,-0.0486 1.666931,0.98151 0.0021,0.34568 -0.04308,0.35566 -1.61786,0.35735 -0.89101,0.002 -1.872245,0.0435 -2.180526,0.0945 -0.39781,0.0658 -0.618507,0.0229 -0.760316,-0.14802 z m 7.010642,0.11629 c -0.173856,-0.0422 -0.474834,-0.11063 -0.66884,-0.15196 -0.467981,-0.0997 -0.862326,-0.89672 -0.802101,-1.62108 0.04809,-0.57843 0.05428,-0.58319 0.758161,-0.58319 0.665038,0 0.714806,0.0298 0.791233,0.47415 0.0792,0.46047 0.109768,0.4755 1.058927,0.52097 1.063958,0.051 1.284592,-0.11187 1.224145,-0.90337 -0.03849,-0.50409 -0.396391,-0.74551 -1.301813,-0.87819 -1.130952,-0.16572 -2.029372,-0.61921 -2.312895,-1.16749 -0.310455,-0.60035 -0.323382,-2.1049 -0.02308,-2.68564 0.347942,-0.67284 0.823808,-0.8066 2.48644,-0.69888 1.334219,0.0864 1.514955,0.13676 1.909818,0.53161 0.540181,0.54019 0.610152,1.46255 0.130425,1.71929 -0.513565,0.27485 -0.809562,0.18521 -0.977314,-0.29601 -0.184094,-0.5281 -0.672826,-0.70924 -1.496605,-0.5547 -0.651922,0.12231 -0.916399,0.51756 -0.709846,1.06083 0.11199,0.29455 0.304104,0.40832 0.829787,0.49137 1.396264,0.22061 1.898977,0.45394 2.365468,1.09792 0.398515,0.55012 0.452271,0.76033 0.452271,1.7685 0,1.66616 -0.173951,1.83277 -1.983806,1.90009 -0.777853,0.0289 -1.556525,0.018 -1.73038,-0.0242 z m 5.847806,-0.12549 c -0.621173,-0.27072 -0.865233,-0.58224 -0.972105,-1.24082 -0.180785,-1.11405 0.891803,-1.39011 1.655337,-0.42606 0.316633,0.39979 0.473662,0.46347 1.142855,0.46347 0.70162,0 0.785546,-0.0389 0.87788,-0.40678 0.05615,-0.22373 0.02522,-0.5755 -0.06874,-0.78173 -0.170701,-0.37464 -0.295752,-0.42503 -2.222346,-0.89534 -0.716406,-0.17488 -0.898299,-0.2953 -1.145867,-0.75859 -0.343015,-0.64191 -0.392591,-2.08812 -0.09219,-2.68933 0.359842,-0.72016 1.10391,-0.95214 2.714776,-0.84644 1.71051,0.11226 2.080065,0.35958 2.235873,1.49633 0.0917,0.66899 0.07011,0.734 -0.274387,0.82621 -0.78528,0.21021 -1.041055,0.12727 -1.140459,-0.36974 -0.09146,-0.45729 -0.1255,-0.47416 -0.95677,-0.47416 -0.572847,0 -0.945242,0.0833 -1.110305,0.24836 -0.562138,0.56214 -0.105034,1.02485 1.300525,1.31645 0.98895,0.20518 1.575011,0.48639 2.005826,0.96244 0.264062,0.29177 0.314218,0.57355 0.315727,1.7737 l 0.0018,1.42682 -0.550711,0.29712 c -0.664232,0.35838 -2.962772,0.40668 -3.716714,0.0781 z m 5.887441,0.0483 c -0.25095,-0.14617 -0.27659,-0.504 -0.27659,-3.86028 v -3.69917 l 0.56499,-0.10599 c 0.3231,-0.0606 0.63395,-0.037 0.72609,0.0551 0.21522,0.21522 0.29907,7.31626 0.0896,7.58345 -0.18555,0.23662 -0.72152,0.24966 -1.10404,0.0269 z m 9.78676,-0.027 c -0.24377,-0.17825 -0.26617,-0.55511 -0.22777,-3.83272 l 0.0426,-3.63504 0.60819,-0.05 c 0.66135,-0.0544 1.12478,0.2376 1.30415,0.82156 0.13328,0.43393 1.81375,3.40545 1.9861,3.51198 0.0725,0.0448 0.13185,-0.954 0.13185,-2.21958 v -2.30101 l 0.51366,0.002 c 0.28252,0.002 0.59494,0.0547 0.69428,0.11854 0.12454,0.0801 0.19815,1.29399 0.23708,3.90933 l 0.0564,3.79321 -0.74474,0.0479 -0.74475,0.048 -0.63299,-1.23331 c -0.34814,-0.67831 -0.76531,-1.48224 -0.92704,-1.78648 -0.16172,-0.30425 -0.43078,-0.83287 -0.59789,-1.17471 -0.53939,-1.10334 -0.62316,-0.86277 -0.56639,1.62661 0.0536,2.34871 0.0535,2.3488 -0.3161,2.44777 -0.49704,0.13308 -0.5072,0.13189 -0.81668,-0.0944 z m 6.55144,0.055 c -0.17998,-0.11399 -0.14239,-0.39366 0.21741,-1.61759 0.23926,-0.81388 0.70799,-2.43481 1.04162,-3.60208 0.33364,-1.16725 0.6981,-2.211 0.80991,-2.31941 0.17104,-0.16584 1.04271,-0.29234 1.62669,-0.23609 0.1801,0.0173 0.64555,0.96774 0.5799,1.18408 -0.0236,0.0778 0.0628,0.46899 0.19207,0.86928 0.40707,1.26079 1.02194,3.38378 1.21786,4.20495 0.1037,0.43464 0.25552,0.87604 0.33739,0.98089 0.2472,0.31661 -0.0194,0.52059 -0.68051,0.52059 -0.63923,0 -0.8146,-0.19763 -1.15699,-1.30392 -0.0697,-0.22535 -0.26955,-0.27614 -1.07838,-0.27417 -0.54603,0.002 -1.07431,0.0547 -1.17398,0.11854 -0.0997,0.0639 -0.26024,0.41023 -0.35683,0.76972 -0.12409,0.46182 -0.2796,0.68147 -0.53002,0.74857 -0.48905,0.13108 -0.79048,0.11859 -1.04614,-0.0434 z m 3.69105,-3.17048 c 0.11799,-0.19093 -0.55262,-2.53472 -0.72525,-2.53472 -0.18003,0 -0.81253,2.19673 -0.70967,2.46477 0.0977,0.25458 1.28504,0.31245 1.43492,0.0699 z m 5.57512,3.19015 -2.17302,-0.044 0.005,-3.86885 0.005,-3.86883 0.7054,0.0267 0.70539,0.0267 v 2.9087 c 0,1.76163 0.0666,3.03316 0.16892,3.22432 0.15473,0.28911 0.27178,0.30665 1.3933,0.20882 1.03186,-0.09 1.266255,-0.0649 1.490615,0.15943 0.31277,0.31276 0.35056,0.93633 0.0687,1.13309 -0.10866,0.0758 -1.175425,0.11809 -2.370575,0.0939 z m 19.795632,-0.009 c -0.53766,-0.0726 -1.07693,-0.60514 -1.25092,-1.23526 -0.0793,-0.28701 -0.13585,-1.87703 -0.12578,-3.53339 0.0183,-3.00276 0.0194,-3.01179 0.38141,-3.10265 0.1997,-0.0501 0.5409,-0.0465 0.75822,0.008 l 0.39512,0.0992 v 2.97545 c 0,2.75291 0.0231,2.99639 0.30931,3.25537 0.25691,0.23249 0.43569,0.25672 1.05557,0.14302 0.97,-0.1779 1.01687,-0.35204 0.98828,-3.67135 -0.024,-2.79054 -0.004,-2.85929 0.82801,-2.86415 0.22841,-0.002 0.48788,0.0865 0.57661,0.19515 0.10316,0.12634 0.13817,1.42133 0.0971,3.59252 -0.0786,4.15771 0.014,3.98122 -2.15456,4.10675 -0.80479,0.0466 -1.64107,0.0607 -1.85839,0.0314 z m 18.07478,-0.14419 c -0.27491,-0.25853 -0.28894,-0.51377 -0.21507,-3.91175 l 0.079,-3.63515 0.4442,-0.051 c 0.87653,-0.1005 0.89923,-0.002 0.89923,3.91092 0,3.6936 -0.044,3.96352 -0.6463,3.96352 -0.14684,0 -0.39933,-0.12447 -0.56108,-0.27659 z m -60.170532,-0.0605 c -0.58337,-0.33911 -0.73593,-1.10531 -0.73593,-3.69601 0,-3.59906 0.0915,-3.71142 3.02043,-3.71142 1.63185,0 1.75862,0.0232 2.1234,0.38794 0.38518,0.38519 0.38794,0.40969 0.38794,3.44955 0,3.9141 0.11398,3.75108 -2.61802,3.74412 -1.04571,-0.002 -2.01629,-0.0803 -2.17782,-0.17418 z m 3.12502,-1.33377 c 0.20093,-0.20093 0.24836,-0.65051 0.24836,-2.35385 0,-2.36198 0.034,-2.29736 -1.20869,-2.29736 -1.30261,0 -1.32011,0.0326 -1.32011,2.46044 0,2.0645 0.0114,2.13782 0.35561,2.27614 0.58498,0.23514 1.65163,0.18783 1.92483,-0.0854 z m 24.940992,-2.39899 0.0423,-3.91175 2.29172,0.0406 c 1.93744,0.0344 2.32239,0.082 2.49004,0.30783 0.19511,0.26283 0.13349,0.74833 -0.13832,1.0898 -0.0864,0.10852 -0.62622,0.15614 -1.43621,0.12666 -0.76211,-0.0277 -1.38202,0.0226 -1.50179,0.12208 -0.11218,0.0931 -0.20397,0.44229 -0.20397,0.77596 v 0.6067 l 1.38294,0.0457 1.38295,0.0456 0.051,0.53377 c 0.0281,0.29357 -0.0238,0.60856 -0.11518,0.69998 -0.13896,0.13894 -1.05515,0.23783 -2.43339,0.26261 -0.24382,0.004 -0.27797,0.12466 -0.23708,0.83489 l 0.0478,0.82976 1.6002,0.0448 1.6002,0.0448 0.0929,0.57255 c 0.0511,0.3149 0.0558,0.63257 0.0105,0.70592 -0.0453,0.0734 -1.18187,0.13336 -2.52564,0.13336 h -2.443207 z m 18.93202,3.64383 c 0.004,-0.38526 0.53957,-2.42645 0.73957,-2.81688 0.0883,-0.1723 0.24492,-0.6689 0.34812,-1.10354 0.1032,-0.43463 0.40768,-1.41257 0.67661,-2.17319 l 0.48895,-1.38294 h 0.85327 0.85326 l 0.32511,0.75074 c 0.17882,0.41291 0.46616,1.31972 0.63854,2.01514 0.17237,0.69542 0.55696,2.02395 0.85464,2.95229 0.29768,0.92834 0.54124,1.75133 0.54124,1.82885 0,0.0775 -0.35177,0.15701 -0.7817,0.17664 l -0.7817,0.0357 -0.1076,-0.6001 c -0.15599,-0.87006 -0.46887,-1.15682 -1.23792,-1.1346 -1.34037,0.0387 -1.55318,0.15239 -1.74035,0.9296 -0.17064,0.70861 -0.17403,0.71141 -0.92201,0.75941 -0.63688,0.0409 -0.75033,0.005 -0.74803,-0.23708 z m 3.85645,-3.02999 c 0.13944,-0.2256 -0.71413,-2.57097 -0.91171,-2.50512 -0.0989,0.033 -0.262,0.42968 -0.36235,0.88156 -0.10034,0.45187 -0.22529,0.9923 -0.27766,1.20097 -0.0767,0.30573 -0.0261,0.3927 0.26063,0.44792 0.64678,0.12455 1.20523,0.1136 1.29109,-0.0253 z m 3.41116,-0.64913 v -3.95548 l 0.59269,0.002 c 0.79774,0.004 0.95596,0.13628 0.93708,0.78783 -0.009,0.30425 -0.001,1.70634 0.0174,3.11578 l 0.0334,2.56259 1.541,0.0452 1.54099,0.0452 v 0.6322 0.63221 l -2.33125,0.0437 -2.33124,0.0437 z m 8.39323,3.80257 c -0.14891,-0.0943 -0.18939,-0.29522 -0.12469,-0.61875 0.0941,-0.47025 0.3152,-0.83732 2.2601,-3.75149 1.20145,-1.80018 1.16956,-1.91767 -0.52882,-1.94804 -1.26486,-0.0226 -1.62659,-0.20078 -1.62073,-0.79826 0.006,-0.6267 0.19294,-0.67311 2.61636,-0.65006 1.46021,0.0139 2.42409,0.0888 2.5565,0.19865 0.33645,0.27925 0.0912,1.03828 -0.72394,2.24058 -0.40543,0.59798 -0.87122,1.3092 -1.03509,1.5805 -0.16386,0.27129 -0.53977,0.86935 -0.83537,1.32904 -0.29559,0.45968 -0.49516,0.90419 -0.44348,0.98782 0.0517,0.0836 0.73163,0.15203 1.51101,0.15203 1.37568,0 1.42154,0.0118 1.57118,0.40541 0.19467,0.51203 0.19918,0.47528 -0.0942,0.76868 -0.20347,0.20346 -0.66773,0.24792 -2.56832,0.24594 -1.27597,-0.002 -2.41919,-0.0653 -2.54048,-0.14205 z m 6.63434,-0.006 c -0.18516,-0.11444 -0.20376,-0.75613 -0.1129,-3.89632 0.0598,-2.06763 0.12459,-3.77225 0.14395,-3.78806 0.28498,-0.23263 0.77818,-0.19429 1.05444,0.082 0.30712,0.30713 0.32419,0.50619 0.32419,3.78196 0,2.57784 -0.0503,3.49736 -0.19756,3.61337 -0.31106,0.24499 -0.96892,0.3574 -1.21212,0.20709 z m 2.93751,0.0448 c -0.1438,-0.14378 -0.11244,-7.01134 0.0337,-7.38351 0.14798,-0.37682 1.0994,-0.47988 1.45906,-0.15805 0.14008,0.12535 0.38517,0.52809 0.54463,0.89495 0.15947,0.36687 0.43408,0.87805 0.61024,1.13597 0.17618,0.25791 0.51079,0.87167 0.74358,1.3639 0.69707,1.47396 0.77078,1.36033 0.77078,-1.18829 v -2.29805 l 0.39513,-0.0992 c 0.21732,-0.0545 0.5732,-0.0545 0.79084,0 l 0.3957,0.0993 -0.008,3.66374 c -0.005,2.37651 -0.0674,3.73587 -0.17798,3.86907 -0.29532,0.35584 -1.03385,0.24096 -1.47436,-0.2293 -0.22392,-0.23905 -0.86755,-1.33766 -1.43031,-2.44136 -0.56275,-1.10369 -1.10047,-2.05448 -1.19494,-2.11286 -0.12125,-0.075 -0.16194,0.58483 -0.13839,2.24379 0.0183,1.29248 0.0252,2.43885 0.0152,2.54751 -0.0191,0.20723 -1.14268,0.28481 -1.3353,0.0922 z m 8.31573,-0.0779 c -1.21258,-0.27178 -1.30883,-0.5441 -1.30883,-3.7028 0,-3.03186 0.0846,-3.3964 0.87555,-3.77172 0.62735,-0.29771 3.02173,-0.33453 3.6333,-0.0559 0.53041,0.24168 0.86487,0.89193 0.86487,1.68152 0,0.54907 -0.0496,0.6311 -0.42462,0.70279 -0.60818,0.11626 -0.8222,-0.0109 -0.96744,-0.57483 -0.11888,-0.46155 -0.18265,-0.50033 -0.89848,-0.54617 -1.55561,-0.0997 -1.50268,-0.18388 -1.50268,2.39152 0,1.54478 0.0599,2.31696 0.18967,2.44676 0.23264,0.23265 1.45755,0.24967 1.87537,0.026 0.22132,-0.11845 0.30572,-0.33229 0.30572,-0.77455 0,-0.57585 -0.0341,-0.61895 -0.59269,-0.75025 -0.47993,-0.1128 -0.60201,-0.21901 -0.64167,-0.55825 -0.0328,-0.28027 0.0457,-0.46663 0.23708,-0.56302 0.28286,-0.14248 2.19216,-0.16515 2.31387,-0.0275 0.0346,0.0392 0.10321,0.77641 0.15235,1.63826 l 0.0893,1.56699 -0.45519,0.4252 c -0.63531,0.59349 -2.23648,0.78408 -3.74551,0.44585 z m 14.33816,-0.0934 c -0.76325,-0.52922 -0.77993,-0.60423 -0.78522,-3.53243 -0.005,-2.91918 0.11874,-3.66323 0.65874,-3.95223 0.17293,-0.0926 0.96559,-0.20188 1.76145,-0.24297 1.30408,-0.0673 1.5088,-0.0385 2.07238,0.29134 0.35615,0.20846 0.67255,0.53561 0.73498,0.75996 0.14838,0.53316 0.16606,5.88073 0.0202,6.10123 -0.2659,0.40189 -1.14792,0.66041 -2.5659,0.75203 -1.27247,0.0822 -1.56174,0.0553 -1.8966,-0.17693 z m 2.82364,-1.35719 c 0.22793,-0.27464 0.40906,-4.21988 0.20714,-4.51143 -0.0832,-0.12014 -0.52909,-0.27816 -0.99083,-0.35115 -0.69351,-0.10962 -0.89095,-0.0862 -1.13507,0.13474 -0.2629,0.23792 -0.29146,0.48615 -0.25864,2.24775 0.0203,1.08917 0.0968,2.10049 0.16996,2.24738 0.0788,0.15821 0.37448,0.29235 0.72527,0.32905 0.32571,0.0341 0.70797,0.0739 0.84946,0.0885 0.14147,0.0145 0.33619,-0.0686 0.43271,-0.18488 z m 3.43049,1.10146 -0.57733,-0.5445 0.0179,-2.82009 c 0.0249,-3.91305 0.0891,-4.00549 2.7824,-4.00549 1.6517,0 1.81018,0.0272 2.222,0.38111 l 0.44346,0.3811 0.0496,2.96898 c 0.0537,3.21201 -0.0131,3.5571 -0.74246,3.83247 -0.22743,0.0859 -1.13458,0.19997 -2.01589,0.25353 l -1.60238,0.0974 z m 3.2289,-1.0444 c 0.18611,-0.1174 0.24822,-0.58992 0.2889,-2.19768 0.0654,-2.58421 0.0111,-2.70637 -1.20325,-2.70312 -0.49677,0.002 -0.99199,0.0588 -1.10046,0.12766 -0.14123,0.0897 -0.20034,0.74922 -0.20818,2.32318 -0.01,1.92266 0.0238,2.2234 0.26694,2.40115 0.32245,0.23577 1.60882,0.26787 1.95605,0.0488 z m -14.38746,1.31653 c -0.20677,-0.0561 -0.24125,-0.50712 -0.23707,-3.10317 l 0.005,-3.03755 -0.89475,-0.047 c -0.95053,-0.0499 -1.04848,-0.13648 -1.0197,-0.90132 l 0.0179,-0.47415 2.50766,-0.0436 c 2.77298,-0.0482 2.99237,0.0136 2.91365,0.82041 -0.0464,0.47512 -0.0719,0.48964 -0.9959,0.56664 l -0.9483,0.079 -0.0428,3.02491 c -0.0422,2.97799 -0.0483,3.02638 -0.39513,3.11935 -0.37614,0.10082 -0.52764,0.10024 -0.91031,-0.004 z m 17.65385,-0.003 c -0.0579,-0.0579 -0.10537,-1.76659 -0.10537,-3.79705 v -3.69176 l 0.416,-0.15816 c 0.22879,-0.087 0.54884,-0.11599 0.71122,-0.0645 0.27524,0.0874 0.29523,0.30663 0.29523,3.23853 v 3.14483 l 1.62002,0.045 1.62002,0.045 0.051,0.4442 c 0.0938,0.81807 -0.12415,0.89922 -2.41471,0.89922 -1.14839,0 -2.13541,-0.0474 -2.19334,-0.10536 z M 51.155618,179.77434 50.444391,179.67232 v -6.40105 -6.40104 l 3.240035,-0.0462 c 1.782019,-0.0254 3.462255,-0.006 3.733858,0.043 0.631636,0.11408 1.43277,0.87957 1.807781,1.72735 0.256813,0.58057 0.298777,1.17979 0.339163,4.84295 0.05281,4.78968 0.0013,5.0299 -1.271165,5.91602 l -0.685054,0.47711 -2.871082,0.023 c -1.579095,0.0127 -3.191134,-0.0229 -3.582309,-0.079 z m 5.339492,-6.10794 c 0.02464,-1.73856 0.0055,-3.32104 -0.04253,-3.51663 -0.08291,-0.33764 -0.163065,-0.35561 -1.585791,-0.35561 H 53.36832 v 3.56186 3.56185 l 1.540992,-0.0452 1.540993,-0.0452 z m 4.884845,6.13223 c -0.270603,-0.0701 -0.28436,-0.41207 -0.255177,-6.3432 0.01696,-3.44801 0.06438,-6.358 0.105369,-6.46667 0.08569,-0.22716 2.511575,-0.27959 2.855128,-0.0617 0.166569,0.10564 0.191591,1.34488 0.129146,6.39656 -0.0426,3.44604 -0.12198,6.33759 -0.176408,6.42565 -0.09725,0.15735 -2.097765,0.19452 -2.658058,0.0493 z m 7.767723,-0.002 c -0.38893,-0.0596 -0.4685,-0.21657 -1.04978,-2.0705 -0.345918,-1.10329 -0.806813,-2.61052 -1.024206,-3.34941 -0.217394,-0.73888 -0.76504,-2.59894 -1.216994,-4.13346 -0.451953,-1.53451 -0.796593,-2.9214 -0.765867,-3.08198 0.04865,-0.25426 0.241273,-0.29779 1.492018,-0.33708 1.059442,-0.0333 1.482734,0.011 1.613749,0.16887 0.0977,0.11769 0.31549,0.77811 0.48402,1.46757 0.57478,2.35146 1.59942,6.31065 1.69469,6.54828 0.12128,0.30248 0.38046,-0.51784 1.09781,-3.47475 0.6557,-2.70274 1.11735,-4.24403 1.35805,-4.53407 0.24363,-0.29355 2.9571,-0.29617 3.06962,-0.003 0.0436,0.11377 -0.24331,1.23395 -0.6377,2.4893 -1.07652,3.42658 -1.44064,4.61836 -2.07355,6.78689 -0.31714,1.0866 -0.71867,2.34902 -0.89229,2.8054 l -0.31568,0.82976 -1.20653,-0.0237 c -0.6636,-0.013 -1.39591,-0.0527 -1.62736,-0.0882 z m 7.71576,-0.0798 c -0.24503,-0.15113 -0.36155,-12.1285 -0.12234,-12.57546 0.15403,-0.28781 0.39043,-0.30675 4.1873,-0.33527 4.60133,-0.0346 4.16055,-0.21251 4.07759,1.64582 -0.0459,1.02801 -0.0886,1.16267 -0.39513,1.24487 -0.18902,0.0507 -1.39272,0.0931 -2.67491,0.0943 l -2.33124,0.002 v 0.94373 0.9437 l 2.09417,0.0441 2.09416,0.0441 v 1.42245 1.42246 l -1.10635,0.0141 c -0.60849,0.008 -1.55087,0.0255 -2.09417,0.0395 l -0.98781,0.0255 v 1.10635 1.10636 h 2.60482 c 3.00735,0 2.82511,-0.11592 2.73782,1.74132 l -0.048,1.02034 -0.6322,0.11939 c -0.77614,0.14656 -7.15039,0.0865 -7.40376,-0.0698 z m 10.8378,-0.0849 c -0.81148,-0.43813 -1.43475,-1.11429 -1.61054,-1.74718 -0.25837,-0.93027 -0.21361,-8.77587 0.0536,-9.40045 0.30855,-0.72115 1.06696,-1.3794 1.77988,-1.54482 0.809,-0.1877 4.83112,-0.18909 5.32366,-0.002 0.53969,0.20518 1.17397,0.87438 1.44611,1.52571 0.26767,0.64066 0.35792,3.01538 0.1235,3.2498 -0.0917,0.0917 -0.72578,0.1379 -1.48302,0.10798 l -1.3228,-0.0519 v -0.9483 -0.94831 l -1.2057,-0.079 c -1.82836,-0.11984 -1.69384,-0.27558 -1.7491,2.02507 -0.0265,1.10287 -0.0255,2.70127 0.002,3.55199 l 0.0505,1.54678 1.45098,-0.0453 1.45099,-0.0453 0.047,-0.98669 c 0.0435,-0.91214 0.0779,-0.99443 0.45526,-1.08914 0.22453,-0.0564 0.87903,-0.0391 1.45445,0.0383 l 1.04623,0.14085 0.0461,1.22295 c 0.0589,1.56165 -0.14358,2.29391 -0.81401,2.94372 -0.69763,0.67617 -1.31207,0.80359 -3.89707,0.80815 -1.73896,0.003 -2.2314,-0.0477 -2.64843,-0.27282 z m 8.845455,0.0764 c -0.12244,-0.14752 -0.17877,-2.07271 -0.18478,-6.31433 -0.007,-5.22845 0.0254,-6.13613 0.22905,-6.3398 0.17604,-0.17605 0.5559,-0.23084 1.46437,-0.21124 l 1.22666,0.0265 0.0437,2.32487 0.0437,2.32486 0.50948,0.0942 c 0.280207,0.0518 1.078447,0.0724 1.773867,0.0459 l 1.26441,-0.0483 v -2.37075 -2.37076 h 1.42246 1.42245 l 0.0413,6.4371 0.0413,6.43711 -0.41203,0.10341 c -0.42573,0.10685 -2.19424,-0.0259 -2.44986,-0.18384 -0.0795,-0.0487 -0.14461,-1.1871 -0.14461,-2.52935 v -2.44046 h -1.73463 -1.734637 l -0.0434,2.56833 -0.0434,2.56832 -1.27958,0.0455 c -0.92371,0.0329 -1.32858,-0.0136 -1.45572,-0.16672 z m 13.577917,0.0427 -2.30789,-0.079 -0.0413,-6.35808 -0.0413,-6.35807 0.3574,-0.0875 c 0.19657,-0.0481 2.02879,-0.0675 4.07159,-0.0429 l 3.71419,0.0446 0.0456,1.38294 c 0.0407,1.23197 0.0148,1.38593 -0.23708,1.41027 -0.49329,0.0477 -1.33851,0.0753 -3.16716,0.10339 l -1.77807,0.0273 v 0.94372 0.94371 l 2.09417,0.0441 2.09417,0.0441 v 1.42245 1.42245 l -2.09417,0.0441 -2.09417,0.0441 v 1.10176 1.10177 h 2.68686 2.68686 l 0.0257,0.67172 c 0.0141,0.36944 0.0432,0.9562 0.0646,1.30391 0.0704,1.14354 0.42972,1.09218 -6.08004,0.86928 z m 8.93822,-0.067 c -0.33422,-0.12217 -0.7879,-0.38822 -1.00818,-0.59122 -0.77817,-0.71711 -0.85634,-1.166 -0.92914,-5.33586 -0.0911,-5.22066 0.0913,-5.98822 1.58427,-6.66632 0.53201,-0.24163 1.04852,-0.29337 2.95657,-0.29623 2.47958,-0.004 3.08364,0.1281 3.72296,0.81249 0.49171,0.52637 0.62615,0.97759 0.75385,2.53 0.10607,1.28956 0.0932,1.38083 -0.21897,1.54787 -0.18518,0.0991 -0.83678,0.15702 -1.47511,0.13114 l -1.14341,-0.0464 -0.0486,-0.86928 c -0.0267,-0.4781 -0.0998,-0.92107 -0.16249,-0.98436 -0.0627,-0.0633 -0.68386,-0.1596 -1.38043,-0.21398 -1.01388,-0.0792 -1.30523,-0.0522 -1.46071,0.13513 -0.14335,0.17272 -0.18304,1.11911 -0.15152,3.61207 l 0.0427,3.37803 h 1.57725 1.57723 l 0.003,-0.9483 0.003,-0.9483 h 1.42246 1.42245 l -0.005,1.5805 c -0.006,1.78805 -0.20512,2.34205 -1.05886,2.95099 -0.4802,0.3425 -0.6862,0.37071 -2.96583,0.4061 -1.79132,0.0278 -2.61312,-0.0217 -3.05745,-0.18408 z m 8.52374,0.0329 c -0.0329,-0.11163 -0.0493,-3.04786 -0.0366,-6.52497 l 0.0231,-6.32202 h 1.50148 1.50148 l 0.079,2.55966 0.079,2.55964 1.48917,-2.20967 c 2.08884,-3.09953 1.9498,-2.98865 3.74806,-2.98865 1.13429,0 1.47992,0.0496 1.47992,0.21257 0,0.25669 -1.66756,2.75591 -3.08482,4.62329 l -0.3715,0.4895 0.63228,1.32809 c 0.34775,0.73046 1.17555,2.4173 1.83953,3.74856 0.99395,1.99284 1.16662,2.44616 0.97734,2.5659 -0.12645,0.08 -0.80565,0.14653 -1.50932,0.14785 -1.02098,0.002 -1.32939,-0.0535 -1.52679,-0.27416 -0.13605,-0.15213 -0.72044,-1.25304 -1.29864,-2.44648 -0.5782,-1.19342 -1.11445,-2.20893 -1.19165,-2.25665 -0.0772,-0.0477 -0.22564,0.0753 -0.32985,0.27329 -0.1042,0.19802 -0.3567,0.56108 -0.5611,0.8068 -0.33782,0.40609 -0.37165,0.59673 -0.37165,2.09417 v 1.64741 l -0.59269,0.008 c -0.32598,0.004 -1.00294,0.0423 -1.50437,0.0844 -0.6593,0.0553 -0.92821,0.0203 -0.97139,-0.1265 z m 12.51354,0.0744 c -1.43743,-0.0482 -1.54505,-0.0748 -1.6245,-0.40156 -0.0468,-0.19244 -0.0653,-3.08813 -0.0411,-6.43484 l 0.044,-6.08495 3.9317,-0.0423 c 2.76791,-0.0298 3.99596,0.011 4.14883,0.13788 0.26115,0.21673 0.30028,2.06157 0.0535,2.52265 -0.15092,0.28202 -0.35305,0.30571 -2.60783,0.30571 h -2.44422 v 0.94372 0.94371 l 2.09417,0.0441 2.09417,0.0441 0.0456,1.38294 0.0457,1.38294 h -2.13984 -2.13984 v 1.18146 1.18147 l 2.56832,0.0434 2.56833,0.0434 0.0463,1.32988 c 0.0333,0.95727 -0.0109,1.36624 -0.15805,1.45955 -0.19357,0.12279 -3.10007,0.13028 -6.4853,0.0167 z m 14.41299,-0.15812 c -0.15778,-0.11053 -0.427,-0.57373 -0.59827,-1.02934 -0.17126,-0.45563 -0.56327,-1.37961 -0.87113,-2.0533 l -0.55973,-1.22489 h -0.74023 -0.74022 l 0.0595,2.1732 0.0595,2.17319 -1.4379,0.0451 -1.43791,0.0451 -0.10308,-1.45234 c -0.0567,-0.79878 -0.1031,-3.59707 -0.1031,-6.2184 0,-3.6657 0.0476,-4.83105 0.20585,-5.04756 0.18876,-0.25814 0.49384,-0.27706 3.67467,-0.22777 3.33798,0.0517 3.48833,0.0676 3.98607,0.42266 0.95367,0.6802 1.14229,1.30815 1.14229,3.80284 0,1.21479 -0.0634,2.37557 -0.14098,2.57952 -0.0775,0.20395 -0.40359,0.62587 -0.72452,0.93761 l -0.58355,0.56678 0.38223,0.77173 c 0.21022,0.42444 0.54126,1.19847 0.73564,1.72003 0.19437,0.52157 0.46652,1.17988 0.60477,1.46292 0.13824,0.28303 0.22215,0.54221 0.18645,0.57595 -0.0357,0.0337 -0.65994,0.0875 -1.38721,0.1196 -0.89879,0.0396 -1.41417,-0.006 -1.60918,-0.14267 z m -0.44913,-7.6661 c 0.01,-0.28251 0.0274,-0.86928 0.0395,-1.30392 l 0.0221,-0.79025 -1.46197,-0.0455 -1.46197,-0.0455 v 1.34938 1.34935 h 1.42246 1.42245 z M 89.282188,158.61184 c -0.51777,-0.66092 -4.62276,-6.59513 -7.06437,-10.21229 -0.87218,-1.29211 -1.84443,-2.71456 -2.16055,-3.16101 -0.31612,-0.44646 -0.96382,-1.41627 -1.43934,-2.15516 -0.47551,-0.73888 -1.30023,-1.94797 -1.8327,-2.68686 -0.96727,-1.34224 -1.18475,-1.99888 -0.77473,-2.33916 0.18466,-0.15326 1.03462,-0.12592 1.77663,0.0571 1.34834,0.33265 5.61935,1.17883 6.3903,1.26605 l 0.95443,0.10798 0.0418,-15.4222 c 0.0286,-10.5332 0.0946,-15.47495 0.20823,-15.58858 0.19021,-0.19017 20.165642,-0.27749 22.276772,-0.0974 1.88594,0.16091 3.76282,0.53843 5.53176,1.11267 1.85186,0.60118 3.59464,1.31912 3.73186,1.53734 0.0532,0.0846 0.12431,0.14114 0.15804,0.12567 0.13272,-0.0608 0.93064,0.37643 0.93064,0.50996 0,0.0781 0.0641,0.10242 0.14236,0.054 0.1662,-0.1027 1.92592,1.22817 3.72988,2.82087 1.42101,1.25462 1.51702,1.36123 1.46177,1.6232 -0.0426,0.20184 -2.51085,2.92539 -4.6647,5.14715 l -1.34004,1.38226 -0.65245,-0.654 c -1.30652,-1.30962 -5.10976,-3.61202 -5.96657,-3.61202 -0.15499,0 -0.44517,-0.0641 -0.64485,-0.14235 -1.7343,-0.68008 -1.88616,-0.69336 -8.58167,-0.75027 -3.564047,-0.0303 -6.643152,-0.0175 -6.842462,0.0284 l -0.36238,0.0834 0.0463,10.80868 c 0.0255,5.94476 0.0922,10.85458 0.14841,10.91069 0.0562,0.0561 0.55403,0.0174 1.10635,-0.0861 0.552335,-0.10348 1.146485,-0.21105 1.320335,-0.23906 1.38338,-0.22285 3.122027,-0.54957 4.620487,-0.86826 1.56505,-0.33286 1.80196,-0.34989 1.99818,-0.14372 0.55686,0.58518 0.47163,0.85834 -0.89548,2.86961 -0.72818,1.07129 -1.97691,2.90794 -2.774957,4.08147 -0.79804,1.17352 -2.19413,3.20052 -3.10239,4.50444 -0.908285,1.30391 -1.916865,2.79749 -2.241305,3.31906 -0.32444,0.52157 -1.20767,1.83733 -1.96273,2.92393 -0.75507,1.0866 -1.52057,2.26913 -1.70112,2.62786 -0.29563,0.58738 -0.59584,0.84925 -0.97358,0.84925 -0.0725,0 -0.34078,-0.26671 -0.59616,-0.59269 z m 5.74709,0.3477 c -0.32136,-0.32137 -0.22885,-0.924 0.21715,-1.41454 0.15808,-0.17385 0.64547,-0.86847 1.083095,-1.54359 0.43764,-0.6751 1.14005,-1.67082 1.56093,-2.2127 0.42088,-0.54188 1.0315,-1.3764 1.35694,-1.8545 0.32544,-0.4781 0.769777,-1.07018 0.987427,-1.31571 l 0.39572,-0.44641 3.19796,0.0134 c 4.12871,0.0174 5.67725,-0.20994 8.05815,-1.18285 4.32989,-1.76929 7.49144,-5.37762 9.1331,-10.42373 0.49268,-1.51439 0.51464,-1.68959 0.52503,-4.18834 0.01,-2.39575 -0.0243,-2.72679 -0.4207,-4.07068 -0.23736,-0.80457 -0.57349,-1.82295 -0.74697,-2.26306 l -0.31541,-0.80021 0.80082,-1.13502 c 2.91934,-4.13764 5.00516,-6.90387 5.20571,-6.90387 0.0749,0 0.18119,0.2046 0.23611,0.45467 0.0549,0.25006 0.26514,0.67868 0.46714,0.95247 0.63435,0.85983 2.12676,4.32023 2.60298,6.03549 0.86834,3.12757 1.02211,4.44457 0.91021,7.79525 -0.19592,5.86634 -1.24467,9.19977 -4.41521,14.0336 -1.07429,1.6379 -1.63558,2.30391 -3.0467,3.61517 -2.89337,2.68864 -3.88666,3.40586 -6.38872,4.61311 -2.53569,1.22349 -3.43702,1.55285 -5.58529,2.04099 -1.3217,0.30033 -2.08177,0.33635 -8.4982,0.40271 -6.538402,0.0677 -7.066482,0.0531 -7.321272,-0.20168 z m 11.416082,-19.09939 c -0.84118,-0.72939 -1.59736,-1.35162 -1.6804,-1.38271 -0.0831,-0.0311 -0.73474,-0.609 -1.44821,-1.2842 -0.71347,-0.67523 -1.55409,-1.42202 -1.86803,-1.65953 -0.99391,-0.75199 -2.075277,-1.80327 -2.173627,-2.11316 -0.0654,-0.20594 0.23627,-0.80262 0.968907,-1.9167 2.18795,-3.32707 2.23252,-3.34982 3.90315,-1.99218 0.62742,0.50987 1.70961,1.42505 2.40488,2.03372 0.69527,0.60867 1.34342,1.10666 1.44034,1.10666 0.0969,0 0.51716,-0.37338 0.93386,-0.82976 1.61255,-1.76607 6.08593,-6.45024 7.89678,-8.26892 1.04456,-1.04906 2.92483,-3.00493 4.17838,-4.34638 1.25356,-1.34146 2.64045,-2.79462 3.08199,-3.22926 0.44154,-0.43464 1.37177,-1.42873 2.0672,-2.20907 1.91159,-2.14506 2.02512,-2.21973 2.5288,-1.66317 0.15734,0.17386 0.37665,0.3161 0.48736,0.3161 0.11071,0 0.31146,0.11017 0.4461,0.24481 0.22105,0.22105 0.20335,0.32158 -0.18234,1.03574 -0.23494,0.43498 -0.53561,0.91158 -0.66816,1.05909 -0.13255,0.14751 -0.4376,0.57047 -0.67789,0.93991 -0.24028,0.36945 -0.51119,0.67172 -0.60202,0.67172 -0.0908,0 -0.13456,0.0533 -0.0972,0.11853 0.0373,0.0652 -0.15403,0.41674 -0.42531,0.78118 -0.27128,0.36447 -0.80078,1.0757 -1.17665,1.58051 -0.37587,0.50483 -1.13976,1.55797 -1.69752,2.34032 -3.23718,4.54061 -4.3493,6.07544 -4.54142,6.26757 -0.1183,0.1183 -1.04094,1.28134 -2.05031,2.58455 -4.71315,6.08517 -8.92326,11.14137 -9.27673,11.14102 -0.13338,-1.3e-4 -0.93075,-0.597 -1.77193,-1.32639 z"
       style="fill:#000000;stroke-width:0.15805"
       id="path1" />
  </g>
</svg>
